<svg width="320" height="220" viewBox="0 0 320 220" fill="none" xmlns="http://www.w3.org/2000/svg">
  <defs>
    <linearGradient id="ultra-bg" x1="0%" y1="0%" x2="100%" y2="100%">
      <stop offset="0%" stop-color="#0f172a"/>
      <stop offset="100%" stop-color="#1e1b4b"/>
    </linearGradient>
    <linearGradient id="ultra-node" x1="0%" y1="0%" x2="100%" y2="100%">
      <stop offset="0%" stop-color="#22d3ee"/>
      <stop offset="100%" stop-color="#38bdf8"/>
    </linearGradient>
  </defs>
  <rect width="320" height="220" rx="24" fill="#020617"/>
  <rect x="10" y="10" width="300" height="200" rx="20" fill="url(#ultra-bg)"/>
  <path d="M78 80H242V160H78V80Z" stroke="#475569" stroke-width="2" stroke-dasharray="6 10"/>
  <circle cx="108" cy="108" r="20" fill="url(#ultra-node)"/>
  <circle cx="210" cy="108" r="20" fill="#c4b5fd"/>
  <circle cx="160" cy="152" r="20" fill="#fbbf24"/>
  <path d="M128 108H188" stroke="#e0e7ff" stroke-width="4" stroke-linecap="round" stroke-opacity="0.8"/>
  <path d="M112 128L148 144" stroke="#e0e7ff" stroke-width="4" stroke-linecap="round" stroke-opacity="0.8"/>
  <path d="M208 128L172 144" stroke="#e0e7ff" stroke-width="4" stroke-linecap="round" stroke-opacity="0.8"/>
  <rect x="86" y="56" width="60" height="12" rx="6" fill="#38bdf8" opacity="0.5"/>
  <rect x="172" y="56" width="60" height="12" rx="6" fill="#c084fc" opacity="0.5"/>
  <rect x="128" y="180" width="80" height="12" rx="6" fill="#a5b4fc" opacity="0.6"/>
  <circle cx="108" cy="156" r="6" fill="#38bdf8"/>
  <circle cx="210" cy="156" r="6" fill="#c084fc"/>
  <text x="160" y="202" text-anchor="middle" fill="#e2e8f0" font-size="14" font-family="'Inter','Noto Sans JP',system-ui">Architecture Story</text>
</svg>
